"King Of Trios - Night 2" - Easton, PA
September 15, 2012

1. Quarter Final Match 1

2. Mr. Touchdown vs. 1-2-3 Kid

3. Quarter Final Match 2

4. Fire Ant & Green Ant vs. Ebessan & Takoyakida

5. Quarter Final Match 3

6. Sugar Dunkerton vs. Tatanka

7. Quarter Final Match 4

8. Eddie Kingston vs. Tadasuke

Cover Art: http://bayimg.com/gadJBAAEA

Screenshots: 
http://bayimg.com/gADjCaaEa 
http://bayimg.com/gAdjdaaeA 
http://bayimg.com/gadJeAaeA 
http://bayimg.com/GaDjFaAea

General Complete name		: Chikara.King.of.Trios.2012.Night.2.DVDrip.MP4.AAC.mp4 
Format				: MPEG-4 
Format profile			: Base Media / Version 2 
Codec ID			: mp42 
File size			: 2.07 GiB 
Duration			: 2h 48mn 
Overall bit rate		: 1 761 Kbps 
Encoded date			: UTC 2012-09-16 22:59:20 

Video
Format				: AVC 
Format/Info			: Advanced Video Codec 
Format profile			: Baseline@L3.0 
Format settings, CABAC		: No 
Format settings, ReFrames	: 2 frames 
Codec ID			: avc1 
Codec ID/Info			: Advanced Video Coding 
Duration			: 2h 48mn 
Bit rate			: 1 629 Kbps 
Width				: 854 pixels 
Height				: 480 pixels 
Display aspect ratio		: 16:9 
Frame rate mode			: Constant 
Frame rate			: 29.970 fps 
Color space			: YUV 
Chroma subsampling		: 4:2:0 
Bit depth			: 8 bits 
Scan type			: Progressive 
Bits/(Pixel*Frame)		: 0.133 
Stream size			: 1.91 GiB (93%) 
Language			: English 

Audio
Format				: AAC 
Format/Info			: Advanced Audio Codec 
Format profile			: LC 
Codec ID			: 40 
Duration			: 2h 48mn 
Bit rate mode			: Constant 
Bit rate			: 128 Kbps 
Channel(s)			: 2 channels 
Channel positions		: Front: L R 
Sampling rate			: 48.0 KHz 
Compression mode		: Lossy 
Stream size			: 154 MiB (7%) 
Language			: English 
